<?xml version="1.0" encoding="utf-8"?>
<!-- Generator: Adobe Illustrator 19.0.0, SVG Export Plug-In . SVG Version: 6.00 Build 0)  -->
<svg version="1.1" id="Layer_1" xmlns="http://www.w3.org/2000/svg" xmlns:xlink="http://www.w3.org/1999/xlink" x="0px" y="0px"
	 viewBox="0 0 1080 1080" style="enable-background:new 0 0 1080 1080;" xml:space="preserve">
<style type="text/css">
	.st0{fill:#FF5858;stroke:#032535;stroke-width:80;stroke-miterlimit:10;}
	.st1{fill:#032535;}
</style>
<circle id="XMLID_1_" class="st0" cx="540.4" cy="540" r="471.8"/>
<path id="XMLID_6_" class="st1" d="M596.4,683.2L779,771.4c3.3,1.6,5.2,5.2,4.5,8.8c-2.1,11.6-7.2,27.9-20.3,41.2
	c-22.2,22.5-53.9,22.9-71.8,22.9c-48.2-0.1-162.4-22-261.1-120.7C328.2,621.1,306,503,298.3,457.5c-9.1-53.7-21.6-134.5,24.5-199.2
	c4-5.6,5.5-8.6,11.5-14.1c6.1-5.7,8.2-7.2,16.1-7.2h46.4c4.2,0,7.7,3.1,8.2,7.3l22.2,192.2c0.4,3.7-1.7,7.3-5.1,8.6
	c-6.5,2.5-14.8,8.3-20.9,17.3c-7.7,11.3-3,26.7,0.7,36.9c33.6,94.8,123.1,171.1,138.2,192c1,1.4,4.3,6.2,10.4,8.7
	c5.2,2.1,10.3,1.8,14,1.1c1.3-0.2,2.5-0.8,3.5-1.6l20.1-15.5C590.3,682.2,593.6,681.8,596.4,683.2z"/>
<path id="XMLID_7_" class="st1" d="M413.7,236.3c-0.7,0.2-2.2,0.6-3.3,1.9c-1,1.4-1.1,2.9-1,3.7l21.4,188c0.4,3.4,4,5.5,7.1,4.1
	c6.5-2.9,14.3-7.8,19-16.3c4.4-8,4.2-15.9,4-20.1l-16.2-138.5c-0.4-2.6-2.4-12.3-11.2-18.6C425.2,234.6,416,235.7,413.7,236.3z"/>
<path id="XMLID_9_" class="st1" d="M787.9,754.7c-0.4,0.6-1.3,1.9-2.9,2.5c-1.6,0.5-3.2,0-3.9-0.2L607,675.1c-3.2-1.5-4-5.6-1.6-8.1
	c4.9-5.2,12.1-11,21.9-12.7c9.1-1.5,16.7,1.2,20.6,2.8l128.1,60.7c2.3,1.3,11.1,6.3,14.3,16.6C793.2,744.3,789.2,752.7,787.9,754.7z
	"/>
<path id="XMLID_2_" d="M476.8,328.9"/>
</svg>
